<svg width="974.91" height="135.47" version="1.1" viewBox="0 0 974.91 135.47" xmlns="http://www.w3.org/2000/svg">
 <g transform="translate(-81.182 -310.92)">
  <g fill="#ce5c00" aria-label="start the fire">
   <path d="m136.87 424.55q0 9.9375-7.6875 15.844-7.5938 5.8125-20.812 5.8125-8.8125 0-17.625-1.875-7.5938-1.6875-8.8125-3.0938-0.75-1.3125-0.75-12.844 0-4.9688 2.25-5.1562 2.25-0.28125 3.8438 2.4375 7.0312 12.281 22.687 12.281 13.219 0 13.219-9.1875 0-4.0312-3-6.75-3.2812-3.0938-12.75-7.2188-13.687-6.0938-18.281-10.688-4.9688-4.875-4.9688-13.125 0-10.125 7.7812-15.75 7.2188-5.4375 19.312-5.4375 7.5938 0 13.875 1.2188 6.75 1.2188 7.0312 3 0.75 5.25 3.0938 15.188 0.28125 1.2188-2.625 1.9688-3.0938 0.65625-4.125-1.0312-7.4062-12.094-18.75-12.094-12.844 0-12.844 8.25 0 4.5938 3.4687 7.3125 3.0938 2.3438 14.531 7.3125 12 5.1562 16.312 9.2812 5.625 5.3438 5.625 14.344z"/>
   <path d="m205.96 435.89q0 4.5-8.25 7.6875-7.3125 2.8125-14.812 2.8125-20.344 0-20.344-21.656v-33.938q0-6.4688-1.0312-7.875-1.0312-1.5-6.8438-2.9062-1.5-0.375-1.5-2.9062 0-2.7188 1.125-3.2812 10.125-4.9688 17.625-17.812 1.0312-1.7812 4.0312-1.125 2.0625 0.65625 2.1562 2.4375l0.375 11.719q0 1.3125 0.46875 1.875 0.65625 0.84375 3 0.84375h20.906q1.7812 0 0 4.4062-2.1562 5.3438-6.375 5.3438h-14.156q-3.6562 0-4.5 1.2188-0.65625 0.84375-0.65625 4.5938v30.656q0 11.625 2.0625 14.719 2.7188 3.9375 12.656 3.9375 3.2812 0 7.9688-1.0312 4.6875-1.125 4.9688-1.125 1.125 0 1.125 1.4062z"/>
   <path d="m293.9 435.71q0 1.9688-7.2188 6-7.125 3.9375-11.438 3.9375-3.6562 0-6.4688-3.5625t-3.9375-3.5625q-0.84375 0-8.9062 3.8438t-16.219 3.8438q-7.6875 0-12.844-4.5-5.625-4.9688-5.625-13.5 0-16.219 37.125-23.25 6.375-1.2188 6.4688-5.1562l0.1875-6q0.5625-15.375-13.594-15.375-4.0312 0-7.6875 7.2188-3.5625 7.2188-10.312 7.7812-7.6875 0.75-7.6875-6.4688 0-4.5 11.438-10.5 12-6.2812 23.062-6.2812 19.031 0 18.844 18.094l-0.375 38.625q-0.0937 6.0938 5.1562 6.0938 1.0312 0 3.9375-0.46875t3.375-0.46875q2.7188 0 2.7188 3.6562zm-28.875-21.375q0.0937-2.3438-1.125-3.0938-1.125-0.75-3.6562-0.28125-22.594 4.0312-22.594 14.719 0 10.781 11.719 10.781 4.6875 0 9.6562-1.7812 5.8125-2.0625 5.8125-4.9688z"/>
   <path d="m364.4 378.24q0 11.344-6.5625 11.344-1.0312 0-6.8438-1.3125t-8.5312-1.3125q-10.5 0-10.5 14.156v27.656q0 4.875 3.375 6.9375 1.9688 1.2188 9.8438 3.2812 4.2188 1.0312 4.2188 3.1875 0 2.5312-0.75 3-0.65625 0.5625-3.4688 0.28125-20.625-2.1562-32.625-0.1875-3.75 0.65625-4.7812 0-0.84375-0.5625-0.84375-3.2812 0-2.5312 5.1562-4.0312 5.25-1.5 5.25-9v-30.094q0-5.9062-1.5938-7.9688-1.5-2.0625-8.4375-5.5312l-0.5625-0.28125q-1.875-0.9375-1.875-2.625 0-1.875 3.8438-3.1875 6.4688-2.25 11.812-6.375 4.4062-3.4688 5.625-3.4688 3.375 0 4.0312 5.8125 0.84375 7.4062 1.9688 7.4062 0.0937 0 10.5-7.0312 6.8438-4.5938 15-4.5938 6.75 0 6.75 7.2188z"/>
   <path d="m428.53 435.89q0 4.5-8.25 7.6875-7.3125 2.8125-14.812 2.8125-20.344 0-20.344-21.656v-33.938q0-6.4688-1.0312-7.875-1.0312-1.5-6.8438-2.9062-1.5-0.375-1.5-2.9062 0-2.7188 1.125-3.2812 10.125-4.9688 17.625-17.812 1.0312-1.7812 4.0312-1.125 2.0625 0.65625 2.1562 2.4375l0.375 11.719q0 1.3125 0.46875 1.875 0.65625 0.84375 3 0.84375h20.906q1.7812 0 0 4.4062-2.1562 5.3438-6.375 5.3438h-14.156q-3.6562 0-4.5 1.2188-0.65625 0.84375-0.65625 4.5938v30.656q0 11.625 2.0625 14.719 2.7188 3.9375 12.656 3.9375 3.2812 0 7.9688-1.0312 4.6875-1.125 4.9688-1.125 1.125 0 1.125 1.4062z"/>
   <path d="m540.84 435.89q0 4.5-8.25 7.6875-7.3125 2.8125-14.812 2.8125-20.344 0-20.344-21.656v-33.938q0-6.4688-1.0312-7.875-1.0312-1.5-6.8438-2.9062-1.5-0.375-1.5-2.9062 0-2.7188 1.125-3.2812 10.125-4.9688 17.625-17.812 1.0312-1.7812 4.0312-1.125 2.0625 0.65625 2.1562 2.4375l0.375 11.719q0 1.3125 0.46875 1.875 0.65625 0.84375 3 0.84375h20.906q1.7812 0 0 4.4062-2.1562 5.3438-6.375 5.3438h-14.156q-3.6562 0-4.5 1.2188-0.65625 0.84375-0.65625 4.5938v30.656q0 11.625 2.0625 14.719 2.7188 3.9375 12.656 3.9375 3.2812 0 7.9688-1.0312 4.6875-1.125 4.9688-1.125 1.125 0 1.125 1.4062z"/>
   <path d="m649.87 442.55q0 3.0938-4.2188 2.9062-23.531-0.84375-30.562-0.375-3.4688 0.28125-4.125 0.0937-1.7812-0.46875-1.7812-3 0-1.7812 5.3438-3.375 3.5625-1.125 4.5-3.4688 0.46875-1.3125 0.46875-6v-25.312q0-21.938-18.562-21.938-8.25 0-15.469 3.9375-6.8438 3.75-6.8438 7.4062v35.719q0 9 11.531 10.219 4.4062 0.375 4.4062 2.8125 0 1.875-0.65625 2.4375t-3.75 0.46875q-14.906-0.5625-30.375 0.75-3.375 0.28125-4.2188 0.0937-1.875-0.375-1.875-2.9062 0-2.0625 5.3438-3.4688 4.9688-1.4062 4.9688-10.219v-84.844q0-7.4062-1.5-10.781-2.1562-4.5-8.625-6.6562-2.5312-0.84375-2.5312-3.0938 0-1.5938 3.8438-3.2812 5.1562-2.3438 13.125-6.8438 5.1562-2.9062 7.0312-2.9062 3.4688 0 3.4688 4.7812 0-0.0937-0.28125 9.375-0.28125 9.375-0.28125 18.281v32.062q0 5.1562 1.5 5.1562-0.84375 0 9.375-5.3438 10.312-5.4375 19.5-5.4375 24.938 0 25.125 27.656l0.1875 31.688q0.0937 9.4688 11.719 10.594 4.2188 0.375 4.2188 2.8125z"/>
   <path d="m729.09 428.96q0 4.0312-10.875 10.031-12.375 6.6562-25.406 6.6562-14.156 0-23.812-9.2812-10.312-9.8438-10.312-26.25 0-18.562 11.531-29.812 10.781-10.5 26.438-10.5 9.2812 0 17.344 5.9062 7.2188 5.25 9.5625 12 0.84375 2.3438 2.5312 2.625 2.4375 0.46875 2.4375 3.2812 0 3.8438-9.1875 6.5625l-43.219 12.844q4.2188 22.312 22.875 22.312 10.781 0 24.562-7.875 2.0625-1.2188 4.0312-1.2188 1.5 0 1.5 2.7188zm-22.219-37.594q0-5.1562-4.2188-9-4.125-3.9375-10.219-3.9375-17.25 0-17.25 24.844v2.25l25.5-7.6875q6.1875-1.7812 6.1875-6.4688z"/>
   <path d="m860.62 316.83q0 3.9375-3.5625 9.1875t-5.625 5.25q-2.5312 0-5.3438-2.5312-5.9062-4.2188-10.406-4.2188-17.812 0-17.812 24.938v20.156q0 4.6875 8.0625 4.0312l11.906-0.9375q7.0312-0.5625 7.6875 2.25 0.1875 0.9375 0.1875 2.7188 0 3.8438-1.875 4.7812-1.125 0.65625-5.8125 0.65625h-11.906q-7.9688 0-8.25 3.375-0.1875 1.9688 0 40.781 0 5.25 4.875 7.5 3.6562 1.7812 12.188 2.4375 3.375 0.28125 4.0312 0.84375 0.75 0.46875 0.75 3 0 2.9062-0.84375 3.4688-0.75 0.5625-3.9375 0.375-20.719-1.125-37.219 0.5625-4.3125 0.46875-5.25 0t-0.9375-3.2812q0-2.3438 5.4375-3.8438 6.4688-1.7812 6.4688-9.375v-36.469q0-5.7188-1.7812-7.9688-1.2188-1.5-4.6875-2.625-5.4375-1.6875-5.4375-5.3438 0-2.5312 2.25-3.1875 0.75-0.1875 4.6875-0.28125 3.375-0.0937 4.2188-1.5 0.5625-1.0312 0.5625-5.0625v-14.906q0-17.812 14.625-29.156 13.969-10.781 34.312-10.781 8.4375 0 8.4375 5.1562z"/>
   <path d="m892.12 336.24q0 4.3125-3.2812 8.0625-3.1875 3.6562-7.0312 3.6562-4.4062 0-7.2188-2.625t-2.8125-6.8438q0-4.125 3.375-7.6875 3.4688-3.5625 7.4062-3.5625 9.5625 0 9.5625 9zm10.406 106.12q-0.46875 2.7188-2.25 3.0938-0.46875 0.0937-4.5-0.1875-13.969-0.9375-27.469 0.375-3.6562 0.375-4.5938-0.28125t-0.9375-3q0-2.1562 4.9688-3.5625 5.4375-1.5938 5.4375-10.406v-24.562q0-7.4062-1.5-10.406-2.0625-4.125-8.5312-6.2812-2.9062-1.0312-2.9062-3.0938 0-2.7188 4.2188-4.0312 7.875-2.4375 13.969-6.4688 4.875-3.375 6-3.375 3.75 0 3.6562 4.875-0.375 24.562-0.375 50.062 0 6.0938 1.7812 8.7188 1.9688 2.9062 7.5 4.125 6.0938 1.4062 5.5312 4.4062z"/>
   <path d="m973.78 378.24q0 11.344-6.5625 11.344-1.0312 0-6.8438-1.3125t-8.5312-1.3125q-10.5 0-10.5 14.156v27.656q0 4.875 3.375 6.9375 1.9688 1.2188 9.8438 3.2812 4.2188 1.0312 4.2188 3.1875 0 2.5312-0.75 3-0.65625 0.5625-3.4688 0.28125-20.625-2.1562-32.625-0.1875-3.75 0.65625-4.7812 0-0.84375-0.5625-0.84375-3.2812 0-2.5312 5.1562-4.0312 5.25-1.5 5.25-9v-30.094q0-5.9062-1.5938-7.9688-1.5-2.0625-8.4375-5.5312l-0.5625-0.28125q-1.875-0.9375-1.875-2.625 0-1.875 3.8438-3.1875 6.4688-2.25 11.812-6.375 4.4062-3.4688 5.625-3.4688 3.375 0 4.0312 5.8125 0.84375 7.4062 1.9688 7.4062 0.0937 0 10.5-7.0312 6.8438-4.5938 15-4.5938 6.75 0 6.75 7.2188z"/>
   <path d="m1056.1 428.96q0 4.0312-10.875 10.031-12.375 6.6562-25.406 6.6562-14.156 0-23.813-9.2812-10.312-9.8438-10.312-26.25 0-18.562 11.531-29.812 10.781-10.5 26.437-10.5 9.2813 0 17.344 5.9062 7.2187 5.25 9.5625 12 0.8437 2.3438 2.5312 2.625 2.4375 0.46875 2.4375 3.2812 0 3.8438-9.1875 6.5625l-43.219 12.844q4.2187 22.312 22.875 22.312 10.781 0 24.562-7.875 2.0625-1.2188 4.0312-1.2188 1.5 0 1.5 2.7188zm-22.219-37.594q0-5.1562-4.2188-9-4.125-3.9375-10.219-3.9375-17.25 0-17.25 24.844v2.25l25.5-7.6875q6.1875-1.7812 6.1875-6.4688z"/>
  </g>
 </g>
</svg>
